<mxfile host="app.diagrams.net" modified="2023-09-17T13:57:07.400Z" agent="Mozilla/5.0 (Windows NT 10.0; Win64; x64) AppleWebKit/537.36 (KHTML, like Gecko) Chrome/116.0.0.0 Safari/537.36" version="21.7.2" etag="AP-181PaVuvJXrWJlV9w" type="github">
  <diagram name="Page-1" id="H6nzI1ZOsoYLjekhnV39">
    <mxGraphModel>
      <root>
        <mxCell id="0" />
        <mxCell id="1" parent="0" />
      </root>
    </mxGraphModel>
  </diagram>
</mxfile>
